<svg width="40" height="40" viewBox="0 0 40 40" fill="none" xmlns="http://www.w3.org/2000/svg">
<rect width="40" height="40" rx="20" fill="#EEE7F7"/>
<path d="M23.4904 30.0002H16.0485C11.7509 30.0002 10.9509 28.0002 10.7462 26.0561L10.0485 18.6049C9.94621 17.6281 9.91831 16.1863 10.8857 15.1072C11.723 14.177 13.109 13.7305 15.1183 13.7305H24.4206C26.4392 13.7305 27.8253 14.1863 28.6532 15.1072C29.6206 16.1863 29.5927 17.6281 29.4904 18.6142L28.7927 26.0468C28.5881 28.0002 27.7881 30.0002 23.4904 30.0002ZM15.1183 15.1165C13.5462 15.1165 12.4671 15.4235 11.9183 16.0374C11.4625 16.5398 11.3137 17.3119 11.4346 18.4654L12.1323 25.9165C12.2904 27.3863 12.6904 28.6049 16.0485 28.6049H23.4904C26.8392 28.6049 27.2485 27.3863 27.4067 25.9072L28.1044 18.4747C28.2253 17.3119 28.0765 16.5398 27.6206 16.0374C27.0718 15.4235 25.9927 15.1165 24.4206 15.1165H15.1183Z" fill="#253017"/>
<path d="M23.4901 15.1163C23.1087 15.1163 22.7924 14.8 22.7924 14.4186V13.6744C22.7924 12.0186 22.7924 11.3953 20.5134 11.3953H19.025C16.7459 11.3953 16.7459 12.0186 16.7459 13.6744V14.4186C16.7459 14.8 16.4297 15.1163 16.0483 15.1163C15.6669 15.1163 15.3506 14.8 15.3506 14.4186V13.6744C15.3506 12.0372 15.3506 10 19.025 10H20.5134C24.1878 10 24.1878 12.0372 24.1878 13.6744V14.4186C24.1878 14.8 23.8715 15.1163 23.4901 15.1163Z" fill="#253017"/>
<path d="M19.7691 24.419C17.2109 24.419 17.2109 22.8376 17.2109 21.8888V20.9306C17.2109 19.619 17.5272 19.3027 18.8388 19.3027H20.6993C22.0109 19.3027 22.3272 19.619 22.3272 20.9306V21.8609C22.3272 22.8283 22.3272 24.419 19.7691 24.419ZM18.6063 20.6981C18.6063 20.7725 18.6063 20.8562 18.6063 20.9306V21.8888C18.6063 22.8469 18.6063 23.0237 19.7691 23.0237C20.9319 23.0237 20.9319 22.8748 20.9319 21.8795V20.9306C20.9319 20.8562 20.9319 20.7725 20.9319 20.6981C20.8575 20.6981 20.7737 20.6981 20.6993 20.6981H18.8388C18.7644 20.6981 18.6807 20.6981 18.6063 20.6981Z" fill="#253017"/>
<path d="M21.6296 22.5775C21.2854 22.5775 20.9785 22.317 20.9412 21.9636C20.8947 21.5822 21.1645 21.2287 21.5459 21.1822C24.0017 20.8752 26.3552 19.945 28.3366 18.5031C28.6436 18.2705 29.0808 18.345 29.3133 18.6612C29.5366 18.9682 29.4715 19.4054 29.1552 19.638C26.9785 21.2194 24.411 22.2333 21.7133 22.5775C21.6854 22.5775 21.6575 22.5775 21.6296 22.5775Z" fill="#253017"/>
<path d="M17.9091 22.5854C17.8812 22.5854 17.8533 22.5854 17.8253 22.5854C15.2765 22.297 12.7928 21.3668 10.644 19.897C10.3277 19.6831 10.244 19.2459 10.4579 18.9296C10.6719 18.6133 11.1091 18.5296 11.4253 18.7436C13.3881 20.0831 15.6486 20.9296 17.9742 21.1994C18.3556 21.2459 18.6347 21.5901 18.5881 21.9715C18.5602 22.3249 18.2626 22.5854 17.9091 22.5854Z" fill="#253017"/>
</svg>
