<svg width="40" height="40" viewBox="0 0 40 40" fill="none" xmlns="http://www.w3.org/2000/svg">
<rect width="40" height="40" rx="20" fill="#F7E7F2"/>
<path d="M23.4038 16.7832C22.7135 16.7832 22.1538 16.2236 22.1538 15.5332C22.1538 14.8428 22.7135 14.2832 23.4038 14.2832C24.0942 14.2832 24.6538 14.8428 24.6538 15.5332C24.6538 16.2236 24.0942 16.7832 23.4038 16.7832Z" fill="#253017"/>
<path d="M18.9058 15.9707C18.2154 15.9707 17.6558 15.4111 17.6558 14.7207C17.6558 14.0303 18.2154 13.4707 18.9058 13.4707C19.5961 13.4707 20.1558 14.0303 20.1558 14.7207C20.1558 15.4111 19.5961 15.9707 18.9058 15.9707Z" fill="#253017"/>
<path d="M15.4038 18.6895C14.7135 18.6895 14.1538 18.1298 14.1538 17.4395C14.1538 16.7491 14.7135 16.1895 15.4038 16.1895C16.0942 16.1895 16.6538 16.7491 16.6538 17.4395C16.6538 18.1298 16.0942 18.6895 15.4038 18.6895Z" fill="#253017"/>
<path d="M14.4351 22.9062C13.7447 22.9062 13.1851 22.3466 13.1851 21.6562C13.1851 20.9659 13.7447 20.4062 14.4351 20.4062C15.1254 20.4062 15.6851 20.9659 15.6851 21.6562C15.6851 22.3466 15.1254 22.9062 14.4351 22.9062Z" fill="#253017"/>
<path d="M16.6538 26.6973C15.9635 26.6973 15.4038 26.1376 15.4038 25.4473C15.4038 24.7569 15.9635 24.1973 16.6538 24.1973C17.3442 24.1973 17.9038 24.7569 17.9038 25.4473C17.9038 26.1376 17.3442 26.6973 16.6538 26.6973Z" fill="#253017"/>
<path d="M29.25 20.25C29.25 18.4205 28.7075 16.6321 27.6911 15.111C26.6747 13.5898 25.23 12.4042 23.5398 11.7041C21.8496 11.004 19.9897 10.8208 18.1954 11.1777C16.4011 11.5347 14.7529 12.4156 13.4593 13.7093C12.1656 15.0029 11.2847 16.6511 10.9277 18.4454C10.5708 20.2397 10.754 22.0996 11.4541 23.7898C12.1542 25.48 13.3398 26.9247 14.861 27.9411C16.3821 28.9575 18.1705 29.5 20 29.5C21.318 29.5 22.224 28.22 22.329 26.906L22.446 25.433C22.5029 24.7211 22.8119 24.0528 23.3175 23.5484C23.823 23.0439 24.492 22.7363 25.204 22.681L26.855 22.552C28.135 22.452 29.25 21.533 29.25 20.25Z" stroke="#253017" stroke-width="1.5" stroke-linejoin="round"/>
</svg>
