<svg width="40" height="40" viewBox="0 0 40 40" fill="none" xmlns="http://www.w3.org/2000/svg">
<rect width="40" height="40" rx="20" fill="#E7F2F6"/>
<path d="M20 29.7549C19.7209 29.7549 19.4419 29.6898 19.2093 29.5596C17.4698 28.6107 14.4093 27.6061 12.493 27.3549L12.2233 27.3177C11.0047 27.1689 10 26.0247 10 24.7875V13.5503C10 12.8154 10.2884 12.1456 10.8186 11.6619C11.3488 11.1782 12.0372 10.9456 12.7628 11.0107C14.8093 11.1689 17.8977 12.1921 19.6465 13.2898L19.8698 13.42C19.9349 13.4573 20.0744 13.4573 20.1302 13.4293L20.2791 13.3363C22.0279 12.2387 25.1163 11.1968 27.1721 11.02C27.1907 11.02 27.2651 11.02 27.2837 11.02C27.9628 10.9549 28.6605 11.1968 29.1814 11.6805C29.7116 12.1642 30 12.834 30 13.5689V24.7968C30 26.0433 28.9953 27.1782 27.7674 27.327L27.4605 27.3642C25.5442 27.6154 22.4744 28.6293 20.7721 29.5689C20.5488 29.6991 20.2791 29.7549 20 29.7549ZM12.5395 12.3968C12.2419 12.3968 11.9721 12.4991 11.7581 12.6945C11.5256 12.9084 11.3953 13.2154 11.3953 13.5503V24.7875C11.3953 25.3363 11.8698 25.8666 12.4 25.941L12.6791 25.9782C14.7721 26.2573 17.9814 27.3084 19.8419 28.3224C19.9256 28.3596 20.0465 28.3689 20.093 28.3503C21.9535 27.3177 25.1814 26.2573 27.2837 25.9782L27.6 25.941C28.1302 25.8759 28.6047 25.3363 28.6047 24.7875V13.5596C28.6047 13.2154 28.4744 12.9177 28.2419 12.6945C28 12.4805 27.693 12.3782 27.3488 12.3968C27.3302 12.3968 27.2558 12.3968 27.2372 12.3968C25.4605 12.5549 22.5953 13.5131 21.0326 14.4898L20.8837 14.5921C20.3721 14.9084 19.6465 14.9084 19.1535 14.6014L18.9302 14.4712C17.3395 13.4945 14.4744 12.5456 12.6512 12.3968C12.614 12.3968 12.5767 12.3968 12.5395 12.3968Z" fill="#253017"/>
<path d="M19.9999 28.9738C19.6185 28.9738 19.3022 28.6576 19.3022 28.2762V14.3227C19.3022 13.9413 19.6185 13.625 19.9999 13.625C20.3813 13.625 20.6976 13.9413 20.6976 14.3227V28.2762C20.6976 28.6669 20.3813 28.9738 19.9999 28.9738Z" fill="#253017"/>
<path d="M16.0466 17.8114H13.9535C13.5721 17.8114 13.2559 17.4951 13.2559 17.1137C13.2559 16.7323 13.5721 16.416 13.9535 16.416H16.0466C16.428 16.416 16.7442 16.7323 16.7442 17.1137C16.7442 17.4951 16.428 17.8114 16.0466 17.8114Z" fill="#253017"/>
<path d="M16.7442 20.6024H13.9535C13.5721 20.6024 13.2559 20.2861 13.2559 19.9047C13.2559 19.5233 13.5721 19.207 13.9535 19.207H16.7442C17.1256 19.207 17.4419 19.5233 17.4419 19.9047C17.4419 20.2861 17.1256 20.6024 16.7442 20.6024Z" fill="#253017"/>
</svg>
