<svg width="40" height="40" viewBox="0 0 40 40" fill="none" xmlns="http://www.w3.org/2000/svg">
<rect width="40" height="40" rx="20" fill="#EBE5C5"/>
<path d="M20 30C14.4837 30 10 25.5163 10 20C10 14.4837 14.4837 10 20 10C25.5163 10 30 14.4837 30 20C30 25.5163 25.5163 30 20 30ZM20 11.3953C15.2558 11.3953 11.3953 15.2558 11.3953 20C11.3953 24.7442 15.2558 28.6047 20 28.6047C24.7442 28.6047 28.6047 24.7442 28.6047 20C28.6047 15.2558 24.7442 11.3953 20 11.3953Z" fill="#253017"/>
<path d="M17.2097 29.0692H16.2795C15.8981 29.0692 15.5818 28.7529 15.5818 28.3715C15.5818 27.9902 15.8795 27.6832 16.2609 27.6739C14.8004 22.6878 14.8004 17.3111 16.2609 12.325C15.8795 12.3157 15.5818 12.0088 15.5818 11.6274C15.5818 11.246 15.8981 10.9297 16.2795 10.9297H17.2097C17.433 10.9297 17.6469 11.0413 17.7772 11.2181C17.9074 11.4041 17.9446 11.6367 17.8702 11.8506C16.1213 17.1064 16.1213 22.8925 17.8702 28.1576C17.9446 28.3715 17.9074 28.6041 17.7772 28.7902C17.6469 28.9576 17.433 29.0692 17.2097 29.0692Z" fill="#253017"/>
<path d="M22.7907 29.0693C22.7163 29.0693 22.6418 29.06 22.5674 29.0321C22.2046 28.9112 22 28.5112 22.1302 28.1484C23.8791 22.8926 23.8791 17.1065 22.1302 11.8414C22.0093 11.4786 22.2046 11.0786 22.5674 10.9577C22.9395 10.8367 23.3302 11.0321 23.4511 11.3949C25.3023 16.9391 25.3023 23.0414 23.4511 28.5763C23.3581 28.8833 23.0791 29.0693 22.7907 29.0693Z" fill="#253017"/>
<path d="M19.9999 24.8367C17.4046 24.8367 14.8185 24.4739 12.3255 23.739C12.3162 24.1111 12.0092 24.4181 11.6279 24.4181C11.2465 24.4181 10.9302 24.1018 10.9302 23.7204V22.7902C10.9302 22.5669 11.0418 22.353 11.2185 22.2227C11.4046 22.0925 11.6372 22.0553 11.8511 22.1297C17.1069 23.8786 22.9023 23.8786 28.1581 22.1297C28.372 22.0553 28.6046 22.0925 28.7906 22.2227C28.9767 22.353 29.079 22.5669 29.079 22.7902V23.7204C29.079 24.1018 28.7627 24.4181 28.3813 24.4181C27.9999 24.4181 27.693 24.1204 27.6837 23.739C25.1813 24.4739 22.5953 24.8367 19.9999 24.8367Z" fill="#253017"/>
<path d="M28.3721 17.9067C28.2976 17.9067 28.2232 17.8974 28.1488 17.8695C22.893 16.1206 17.0976 16.1206 11.8418 17.8695C11.4697 17.9904 11.079 17.795 10.9581 17.4322C10.8465 17.0602 11.0418 16.6695 11.4046 16.5485C16.9488 14.6974 23.0511 14.6974 28.586 16.5485C28.9488 16.6695 29.1534 17.0695 29.0232 17.4322C28.9395 17.7206 28.6604 17.9067 28.3721 17.9067Z" fill="#253017"/>
</svg>
