<svg width="40" height="40" viewBox="0 0 40 40" fill="none" xmlns="http://www.w3.org/2000/svg">
<rect width="40" height="40" rx="20" fill="#F7EBE5"/>
<path d="M25.3921 30H14.6083C12.0566 30 9.98926 27.9233 9.98926 25.3717V18.4711C9.98926 17.2046 10.7715 15.6122 11.7773 14.83L16.7967 10.9187C18.3053 9.74534 20.7172 9.68946 22.2817 10.7883L28.0369 14.8206C29.145 15.5936 30.0111 17.2512 30.0111 18.6015V25.381C30.0111 27.9233 27.9437 30 25.3921 30ZM17.6534 12.0176L12.634 15.9288C11.9728 16.4503 11.3861 17.633 11.3861 18.4711V25.3717C11.3861 27.1504 12.8296 28.6031 14.6083 28.6031H25.3921C27.1708 28.6031 28.6142 27.1597 28.6142 25.381V18.6015C28.6142 17.7075 27.9717 16.469 27.236 15.9661L21.4809 11.9338C20.4192 11.1888 18.6685 11.226 17.6534 12.0176Z" fill="#253017"/>
<path d="M20 26.75C19.59 26.75 19.25 26.41 19.25 26V23C19.25 22.59 19.59 22.25 20 22.25C20.41 22.25 20.75 22.59 20.75 23V26C20.75 26.41 20.41 26.75 20 26.75Z" fill="#253017"/>
</svg>
