<svg width="32" height="32" viewBox="0 0 32 32" fill="none" xmlns="http://www.w3.org/2000/svg">
<rect width="32" height="32" rx="16" fill="#E4E8DF"/>
<path d="M18.2061 21.3327C18.323 21.3327 18.4399 21.2896 18.5322 21.1973C18.7106 21.0189 18.7106 20.7236 18.5322 20.5452L14.5209 16.5338C14.2255 16.2385 14.2255 15.7586 14.5209 15.4633L18.5322 11.452C18.7106 11.2736 18.7106 10.9782 18.5322 10.7998C18.3538 10.6214 18.0585 10.6214 17.8801 10.7998L13.8687 14.8112C13.5549 15.1249 13.3765 15.5495 13.3765 15.9986C13.3765 16.4477 13.5488 16.8722 13.8687 17.186L17.8801 21.1973C17.9723 21.2835 18.0892 21.3327 18.2061 21.3327Z" fill="#69735D"/>
</svg>
