<svg width="32" height="32" viewBox="0 0 32 32" fill="none" xmlns="http://www.w3.org/2000/svg">
<rect width="32" height="32" rx="16" transform="matrix(-1 0 0 1 32 0)" fill="#E4E8DF"/>
<path d="M13.7932 21.3327C13.6763 21.3327 13.5594 21.2896 13.4671 21.1973C13.2887 21.0189 13.2887 20.7236 13.4671 20.5452L17.4785 16.5338C17.7738 16.2385 17.7738 15.7586 17.4785 15.4633L13.4671 11.452C13.2887 11.2736 13.2887 10.9782 13.4671 10.7998C13.6456 10.6214 13.9409 10.6214 14.1193 10.7998L18.1306 14.8112C18.4444 15.1249 18.6228 15.5495 18.6228 15.9986C18.6228 16.4477 18.4506 16.8722 18.1306 17.186L14.1193 21.1973C14.027 21.2835 13.9101 21.3327 13.7932 21.3327Z" fill="#69735D"/>
</svg>
