<svg width="18" height="20" viewBox="0 0 18 20" fill="none" xmlns="http://www.w3.org/2000/svg">
<path d="M8.68868 10.6977C5.73984 10.6977 3.33984 8.29768 3.33984 5.34884C3.33984 2.4 5.73984 0 8.68868 0C11.6375 0 14.0375 2.4 14.0375 5.34884C14.0375 8.29768 11.6375 10.6977 8.68868 10.6977ZM8.68868 1.39535C6.51194 1.39535 4.73519 3.17209 4.73519 5.34884C4.73519 7.52558 6.51194 9.30233 8.68868 9.30233C10.8654 9.30233 12.6422 7.52558 12.6422 5.34884C12.6422 3.17209 10.8654 1.39535 8.68868 1.39535Z" fill="#253017"/>
<path d="M16.6791 20.0007C16.2977 20.0007 15.9814 19.6844 15.9814 19.3031C15.9814 16.0937 12.707 13.4891 8.68837 13.4891C4.66976 13.4891 1.39535 16.0937 1.39535 19.3031C1.39535 19.6844 1.07907 20.0007 0.697674 20.0007C0.316279 20.0007 0 19.6844 0 19.3031C0 15.331 3.89767 12.0938 8.68837 12.0938C13.4791 12.0938 17.3767 15.331 17.3767 19.3031C17.3767 19.6844 17.0605 20.0007 16.6791 20.0007Z" fill="#253017"/>
</svg>
